<svg width="24" height="24" fill="#3E3E3E" xmlns="http://www.w3.org/2000/svg">
<path d="M16.75 14.208V9.78988C16.75 9.18588 16.2857 8.68335 15.6836 8.63562C12.426 8.37738 9.15298 8.37738 5.89533 8.63562L5.7066 8.65058C5.26765 8.68538 4.90256 9.00205 4.80609 9.43168C4.42762 11.1172 4.42776 12.8662 4.80621 14.5516C4.90239 14.98 5.2657 15.2964 5.7035 15.3326L5.87777 15.347C9.14668 15.6169 12.4323 15.6169 15.7012 15.347C16.2939 15.298 16.75 14.8027 16.75 14.208Z"/>
<path fill-rule="evenodd" clip-rule="evenodd" d="M5.66357 5.66382C9.2158 5.38684 12.7842 5.38684 16.3364 5.66382L17.684 5.76891C18.8937 5.86323 19.8836 6.76937 20.0842 7.96598C20.5319 10.6367 20.5319 13.3633 20.0842 16.034C19.8836 17.2307 18.8937 18.1368 17.684 18.2311L16.3364 18.3362C12.7842 18.6132 9.2158 18.6132 5.66357 18.3362L4.31597 18.2311C3.10633 18.1368 2.11644 17.2307 1.91583 16.034C1.46809 13.3633 1.46809 10.6367 1.91583 7.96597C2.11644 6.76936 3.10633 5.86321 4.31597 5.76889L5.66357 5.66382ZM16.2198 16.8407C12.7452 17.1117 9.25479 17.1117 5.78018 16.8407L4.43258 16.7357C3.90974 16.6949 3.48189 16.3032 3.39518 15.786C2.97497 13.2795 2.97497 10.7205 3.39518 8.21398C3.48189 7.69678 3.90974 7.30512 4.43258 7.26436L5.78018 7.15928C9.25479 6.88836 12.7452 6.88836 16.2198 7.15928L17.5674 7.26437C18.0903 7.30514 18.5181 7.69679 18.6048 8.21399C19.025 10.7205 19.025 13.2795 18.6048 15.786C18.5181 16.3032 18.0903 16.6949 17.5674 16.7357L16.2198 16.8407Z"/>
</svg>
