<svg width="24" height="24" fill="#3E3E3E" xmlns="http://www.w3.org/2000/svg">
<path d="M10.7895 9.19654C10.7895 8.99603 10.7092 8.80388 10.5665 8.66297C10.4239 8.52206 10.2308 8.44414 10.0303 8.4466C8.65077 8.46351 7.27168 8.52652 5.89533 8.63562L5.7066 8.65059C5.26765 8.68538 4.90256 9.00206 4.80609 9.43169C4.42762 11.1172 4.42776 12.8662 4.80621 14.5517C4.90239 14.98 5.26571 15.2964 5.7035 15.3326L5.87777 15.347C7.25968 15.4611 8.64458 15.527 10.0299 15.5446C10.2305 15.5472 10.4237 15.4693 10.5664 15.3284C10.7091 15.1874 10.7895 14.9952 10.7895 14.7947V9.19654Z"/>
<path fill-rule="evenodd" clip-rule="evenodd" d="M5.66357 5.66382C9.21579 5.38684 12.7842 5.38684 16.3364 5.66382L17.684 5.76892C18.8937 5.86324 19.8836 6.76938 20.0842 7.966C20.5319 10.6367 20.5319 13.3633 20.0842 16.0341C19.8836 17.2307 18.8937 18.1368 17.684 18.2311L16.3364 18.3362C12.7842 18.6132 9.2158 18.6132 5.66357 18.3362L4.31596 18.2311C3.10632 18.1368 2.11643 17.2307 1.91582 16.034C1.46808 13.3633 1.46808 10.6367 1.91582 7.96597C2.11643 6.76935 3.10632 5.86321 4.31597 5.76889L5.66357 5.66382ZM16.2198 16.8407C12.7452 17.1117 9.25478 17.1117 5.78017 16.8407L4.43257 16.7357C3.90973 16.6949 3.48188 16.3032 3.39518 15.786C2.97496 13.2795 2.97496 10.7205 3.39518 8.21398C3.48188 7.69678 3.90973 7.30512 4.43257 7.26435L5.78017 7.15928C9.25478 6.88835 12.7452 6.88835 16.2198 7.15928L17.5674 7.26438C18.0903 7.30515 18.5181 7.6968 18.6048 8.21401C19.025 10.7205 19.025 13.2795 18.6048 15.786C18.5181 16.3033 18.0903 16.6949 17.5674 16.7357L16.2198 16.8407Z"/>
</svg>
