<svg viewBox="0 0 24 24" fill="#3E3E3E" xmlns="http://www.w3.org/2000/svg">
<path fill-rule="evenodd" clip-rule="evenodd" d="M16.1596 20.7213C17.9859 20.5172 19.4608 19.0785 19.6757 17.2416C20.0449 14.0847 20.0449 10.8955 19.6757 7.73854C19.4608 5.90158 17.9859 4.46293 16.1596 4.25881C13.072 3.91373 9.88061 3.91373 6.79305 4.25881C4.96667 4.46293 3.49177 5.90158 3.27692 7.73854C2.90769 10.8955 2.90769 14.0847 3.27692 17.2416C3.49177 19.0785 4.96667 20.5172 6.79305 20.7213C9.88061 21.0664 13.072 21.0664 16.1596 20.7213ZM6.95966 5.74953C5.81523 5.87743 4.89918 6.78068 4.76677 7.91279C4.41108 10.9539 4.41108 14.0262 4.76677 17.0673C4.89918 18.1994 5.81523 19.1027 6.95966 19.2306C9.93649 19.5633 13.0161 19.5633 15.9929 19.2306C17.1374 19.1027 18.0534 18.1994 18.1858 17.0673C18.5415 14.0262 18.5415 10.9539 18.1858 7.91279C18.0534 6.78068 17.1374 5.87744 15.9929 5.74953C13.0161 5.41682 9.93649 5.41682 6.95966 5.74953Z"/>
</svg>
