<svg viewBox="0 0 24 24" fill="#3E3E3E" xmlns="http://www.w3.org/2000/svg">
<path d="M6.95966 5.74953C5.81523 5.87743 4.89918 6.78068 4.76677 7.91279C4.41108 10.9539 4.41108 14.0262 4.76677 17.0673C4.89918 18.1994 5.81523 19.1027 6.95966 19.2306C9.93649 19.5633 13.0161 19.5633 15.9929 19.2306C17.1374 19.1027 18.0534 18.1994 18.1858 17.0673C18.4414 14.8822 18.5133 12.681 18.4016 10.4868C18.3988 10.4301 18.4199 10.3749 18.46 10.3347L19.4988 9.29596C19.6191 9.17573 19.8245 9.25091 19.8373 9.42047C20.0333 12.0254 19.9794 14.6444 19.6757 17.2416C19.4608 19.0785 17.9859 20.5172 16.1596 20.7213C13.072 21.0664 9.88061 21.0664 6.79305 20.7213C4.96667 20.5172 3.49177 19.0785 3.27692 17.2416C2.90769 14.0847 2.90769 10.8955 3.27692 7.73854C3.49177 5.90158 4.96667 4.46293 6.79305 4.25881C9.88061 3.91373 13.072 3.91373 16.1596 4.25881C16.8028 4.3307 17.4025 4.55573 17.9188 4.89737C18.0204 4.96459 18.0305 5.10743 17.9444 5.19358L17.1415 5.99646C17.0758 6.06214 16.9739 6.07318 16.8921 6.02932C16.6187 5.88282 16.3148 5.7855 15.9929 5.74953C13.0161 5.41682 9.93649 5.41682 6.95966 5.74953Z"/>
<path d="M20.5066 6.52039C20.7995 6.2275 20.7995 5.75262 20.5066 5.45973C20.2137 5.16684 19.7388 5.16684 19.446 5.45973L10.9763 13.9294L8.50662 11.4597C8.21372 11.1668 7.73885 11.1668 7.44596 11.4597C7.15306 11.7526 7.15306 12.2275 7.44596 12.5204L10.446 15.5204C10.7389 15.8133 11.2137 15.8133 11.5066 15.5204L20.5066 6.52039Z"/>
</svg>
