<svg viewBox="0 0 24 24" fill="#3E3E3E" xmlns="http://www.w3.org/2000/svg">
<path fill-rule="evenodd" clip-rule="evenodd" d="M6.50914 8.82899C6.66268 8.97095 6.74999 9.17057 6.74999 9.37969L6.74999 14.6045C6.74999 14.814 6.66236 15.0139 6.50831 15.1559C6.35426 15.2979 6.14784 15.369 5.93903 15.352L5.70349 15.3326C5.2657 15.2964 4.90238 14.98 4.8062 14.5516C4.42775 12.8662 4.42761 11.1172 4.80608 9.43168C4.90255 9.00205 5.26764 8.68537 5.70659 8.65058M6.50914 8.82899C6.35559 8.68703 5.91506 8.63421 5.70659 8.65058Z"/>
<path fill-rule="evenodd" clip-rule="evenodd" d="M5.66357 18.3362C9.2158 18.6132 12.7842 18.6132 16.3364 18.3362L17.684 18.2311C18.8937 18.1368 19.8836 17.2307 20.0842 16.034C20.5319 13.3633 20.5319 10.6367 20.0842 7.96598C19.8836 6.76936 18.8937 5.86322 17.684 5.7689L16.3364 5.66382C12.7842 5.38684 9.21579 5.38684 5.66357 5.66382L4.31597 5.76889C3.10632 5.86321 2.11643 6.76935 1.91582 7.96597C1.46808 10.6367 1.46808 13.3633 1.91582 16.034C2.11643 17.2306 3.10632 18.1368 4.31596 18.2311L5.66357 18.3362ZM16.2198 7.15928C12.7452 6.88835 9.25478 6.88835 5.78017 7.15928L4.43257 7.26435C3.90973 7.30512 3.48188 7.69678 3.39518 8.21398C2.97496 10.7205 2.97496 13.2795 3.39518 15.786C3.48188 16.3032 3.90973 16.6949 4.43257 16.7357L5.78017 16.8407C9.25478 17.1117 12.7452 17.1117 16.2198 16.8407L17.5674 16.7357C18.0903 16.6949 18.5181 16.3032 18.6048 15.786C19.025 13.2795 19.025 10.7205 18.6048 8.21399C18.5181 7.69678 18.0903 7.30513 17.5674 7.26436L16.2198 7.15928Z"/>
</svg>
